# xmcd CD database file
#
# Track frame offsets:
#	150
#	38556
#	95455
#	122932
#	161470
#	210629
#	261532
#	299955
#
# Disc length: 4366 seconds
#
# Revision: 0
# Processed by: cddbd v1.5.2PL0 Copyright (c) Steve Scherf et al.
# Submitted via: CDex 1.51
#
DISCID=7b110c08
DTITLE=John Carter and Bobby Bradford - The Complete Revelation Sessions CD 2
DYEAR=1900
DGENRE=Jazz
TTITLE0=The Village Dancers
TTITLE1=Rosevita's DAnce
TTITLE2=Ballad
TTITLE3=Circle
TTITLE4=In a Pretty Place
TTITLE5=Latin
TTITLE6=The Little Waltz
TTITLE7=Woodmen Hall Blues
EXTD=
EXTT0=
EXTT1=
EXTT2=
EXTT3=
EXTT4=
EXTT5=
EXTT6=
EXTT7=
PLAYORDER=
